<svg id="visual" viewBox="0 0 900 600" width="900" height="600" xmlns="http://www.w3.org/2000/svg" xmlns:xlink="http://www.w3.org/1999/xlink" version="1.1"><rect x="0" y="0" width="900" height="600" fill="#fffafb"></rect><defs><linearGradient id="grad1_0" x1="33.3%" y1="0%" x2="100%" y2="100%"><stop offset="20%" stop-color="#fffafb" stop-opacity="1"></stop><stop offset="80%" stop-color="#fffafb" stop-opacity="1"></stop></linearGradient></defs><defs><linearGradient id="grad2_0" x1="0%" y1="0%" x2="66.7%" y2="100%"><stop offset="20%" stop-color="#fffafb" stop-opacity="1"></stop><stop offset="80%" stop-color="#fffafb" stop-opacity="1"></stop></linearGradient></defs><g transform="translate(900, 0)"><path d="M0 270.4C-34.8 262.7 -69.5 254.9 -99.5 240.2C-129.5 225.5 -154.7 203.9 -181 181C-207.3 158.1 -234.7 133.9 -249.8 103.5C-264.9 73.1 -267.7 36.5 -270.4 0L0 0Z" fill="#357ded"></path></g><g transform="translate(0, 600)"><path d="M0 -270.4C33.6 -262.6 67.2 -254.7 100.6 -243C134.1 -231.3 167.4 -215.7 191.2 -191.2C215.1 -166.7 229.5 -133.2 241.1 -99.9C252.8 -66.5 261.6 -33.3 270.4 0L0 0Z" fill="#357ded"></path></g></svg>