<svg id="visual" viewBox="0 0 900 900" width="900" height="900" xmlns="http://www.w3.org/2000/svg" xmlns:xlink="http://www.w3.org/1999/xlink" version="1.1"><rect x="0" y="0" width="900" height="900" fill="#fffafb"></rect><defs><linearGradient id="grad1_0" x1="0%" y1="0%" x2="100%" y2="100%"><stop offset="30%" stop-color="#fffafb" stop-opacity="1"></stop><stop offset="70%" stop-color="#fffafb" stop-opacity="1"></stop></linearGradient></defs><defs><linearGradient id="grad2_0" x1="0%" y1="0%" x2="100%" y2="100%"><stop offset="30%" stop-color="#fffafb" stop-opacity="1"></stop><stop offset="70%" stop-color="#fffafb" stop-opacity="1"></stop></linearGradient></defs><g transform="translate(900, 0)"><path d="M0 381.8C-45.3 358.6 -90.5 335.4 -129.3 312.3C-168.1 289.1 -200.5 266 -240.4 240.4C-280.4 214.8 -327.9 186.6 -352.8 146.1C-377.6 105.6 -379.7 52.8 -381.8 0L0 0Z" fill="#357ded"></path></g><g transform="translate(0, 900)"><path d="M0 -381.8C52.5 -379.8 105.1 -377.8 146.1 -352.8C187.2 -327.7 216.8 -279.5 237.6 -237.6C258.4 -195.6 270.3 -159.9 292.9 -121.3C315.4 -82.7 348.6 -41.4 381.8 0L0 0Z" fill="#357ded"></path></g></svg>